/* XPM */
static char *_974a72cfe464185b8267e46d0a36650GzGoiAG6MyKlLNZs[] = {
/* columns rows colors chars-per-pixel */
"65 65 78 1 ",
"  c #120707",
". c #121A15",
"X c #0F231C",
"o c #10221C",
"O c #02372D",
"+ c #01382E",
"@ c #004D3E",
"# c #005241",
"$ c #006652",
"% c #007F66",
"& c #008C6F",
"* c #008C71",
"= c #009C7D",
"- c #AF7FBA",
"; c #BF77BE",
": c #B37DBC",
"> c #BC79BE",
", c #CE6EC2",
"< c #D16DC3",
"1 c #C574C1",
"2 c #CB71C2",
"3 c #00B38F",
"4 c #00B592",
"5 c #00BC95",
"6 c #00B69E",
"7 c #00BC9B",
"8 c #01AEA3",
"9 c #0CACA3",
"0 c #1FABA5",
"q c #00B2A1",
"w c #23ABA5",
"e c #2DAAA6",
"r c #36A7A7",
"t c #3BA7A7",
"y c #32A9A5",
"u c #38A8A6",
"i c #3EA7A9",
"p c #3AA8A8",
"a c #5C9FAA",
"s c #649DAC",
"d c #6B9AAD",
"f c #7597AE",
"g c #7B95AF",
"h c #7398AF",
"j c #7D94B1",
"k c #44A5A7",
"l c #44A6A9",
"z c #4BA3A9",
"x c #50A2AA",
"c c #54A0AA",
"v c #54A1AA",
"b c #5AA0AB",
"n c #00C198",
"m c #8B8FB3",
"M c #8D8EB3",
"N c #8A8FB4",
"B c #8D8EB4",
"V c #9F86B6",
"C c #948BB4",
"Z c #978AB5",
"A c #928CB4",
"S c #938CB5",
"D c #9989B6",
"F c #988AB6",
"G c #9C88B7",
"H c #9F86B8",
"J c #8293B1",
"K c #8093B2",
"L c #8590B1",
"P c #8690B1",
"I c #8990B3",
"U c #8B90B4",
"Y c #A087B7",
"T c #A483B8",
"R c #A782B8",
"E c #A286B8",
"W c #A584B8",
"Q c #A982B9",
/* pixels */
"                                                                 ",
"                                                                 ",
"                                                                 ",
"                                                                 ",
"                                                                 ",
"                                                                 ",
"                                                                 ",
"                                                                 ",
"                                                                 ",
"                                                                 ",
"                                                                 ",
"                                                                 ",
"                                                                 ",
"                                                                 ",
"                                                                 ",
"                                                                 ",
"                           .#%=4n53=&#.                          ",
"                         +&nnnn757755nn&O                        ",
"                       X*nn77777777767775*o                      ",
"                      @4n7777766766667777n5@                     ",
"                     $nn7777qqqqqqqq6q66777n$                    ",
"                    $nn777qqqqq889988qqqq7777$                   ",
"                   @n7776qq88wytpptuyw98qq777n@                  ",
"                  o4n776qq8wtllvvaaalkrw88q6775o                 ",
"                  &n776688ylvbsdddddsaxly8qqq77*                 ",
"                 +nn76q88rlvsdfjjJjgfdsaly8qq777O                ",
"                 &n776q8ylbdfjPMBBBNPjfdbly8qq77&                ",
"                .n77668wlvdfjUAFYVVCANJfdvkw8q675.               ",
"                #n77669rxsfJMCYTQQREECBJfsxu8q677@               ",
"                %n7668wiadjmFYQQ:::-QEFNjdalw8q67&               ",
"                =776q8yzsfPCYQ:>>1>>:QVAPfszy8666=               ",
"                4777q8radgmFTQ>1111;>-WFIgdvr8q673               ",
"                5n7qq9uadjACQ:>12<211:QGBjdbp9qq77               ",
"                5776q9ivdjBVQ:;2<<,2>:QGMjdbp8q675               ",
"                4776q8uadjBHQ:;1,<21>:RGMjdap8q664               ",
"                =n76q8rvdjNCT::;121;>-RCUgdxu8q67=               ",
"                &777q8ezsfPAYQ:>;;;::QYCPfsze8q67%               ",
"                @576qqwladjBCEQ::::-QGFBJdbl0qq67#               ",
"                .n77qq8rxshJMFVWQQRTYCMJfsxr8qq77.               ",
"                 &777qqwlbsfJUAFGHEFCNJfsbk08q77*                ",
"                 On77qq8ylbdhjPUBBBmPjhsaze8qq77O                ",
"                  &n776q9rzvsdfgjjjjhhsakr8qq67*                 ",
"                  X4776q88ylzasdddddsaxke8qq674o                 ",
"                   @7776qq8wtlzvaaxzzktw886667#                  ",
"                    $n776qq88wyriitryw88qq667$                   ",
"                     $777766q88889q88qqq6777$                    ",
"                      @47776666qqqqqq6q6774#                     ",
"                       X&7776666666q67777*o                      ",
"                         O*777776767777*O                        ",
"                           .#%=4554=%#.                          ",
"                                                                 ",
"                                                                 ",
"                                                                 ",
"                                                                 ",
"                                                                 ",
"                                                                 ",
"                                                                 ",
"                                                                 ",
"                                                                 ",
"                                                                 ",
"                                                                 ",
"                                                                 ",
"                                                                 ",
"                                                                 ",
"                                                                 "
};
