/* XPM */
static char *result[] = {
/* columns rows colors chars-per-pixel */
"65 65 13 1 ",
"  c #120707",
". c #001715",
"X c #001E19",
"o c #231611",
"O c #00261E",
"+ c #00312A",
"@ c #392320",
"# c #5F3822",
"$ c #593735",
"% c #6F502F",
"& c #8D662B",
"* c #A38D35",
"= c #D9BF56",
/* pixels */
"        ....................OOOOOOOOOOOO................         ",
"        ........OOOOOOO...OO+++++++++++OO.OOOOOO........         ",
"        .....++++++++OOO..+OOOOOOOOOOOOOO.+++++++++X....         ",
"        ....OOOOOOOOOOOX.OOOOOOOXXXOOOOOO.OOOOOOOOOOX...         ",
"        ....XOOOXXOXXXXX.XOOOXXXXXXXXXXXX.OOOXXOXXXXX...         ",
"        ....XXOXXXXXXXXX.XXOXXXXX.XXXXXXX.XOXXXXXXXXX...         ",
"        ....XXXXXXXXXXX..XXXXXXXX..XXXXXX.XXXXXXXXXX....         ",
"        ....XXXXXXXXXXX..XXXXXXX...XXXXX..XXXXXXXXXX....         ",
"        ................................................         ",
"        ...XXOOOO...oooooooooooooooooooooooooo..XXOOOO..         ",
"        ..XX++++++..oooooooooo@o@@oooooooooooo.XX++++++.         ",
"        ..XX+XXXXX..oo@@oooo@o@o@@@ooooo@@@ooo.XX+XXXXX.         ",
"        ..XO+XXXXX..oo@@oooo@o@o@@@ooo@o@@@@oo.XO+XXXXX.         ",
"        ..X+XXXXXX..o@@@oooo@o@o@@@ooo@o@@@@oo.X+XXXXXX.         ",
"        ...XXXXXXX..o@@@oooo@o@o@@@ooo@o@@@@oo..XXXXXXX.         ",
"        ...XXXXXXX..o@@@oooo@o@@@@@ooo@o@@@ooo..XXXXXXX.         ",
"        .....XXXX...o@@@@oo@@o@@@@@ooo@o@@@ooo....XXXX..         ",
"        ............o@@@@oo@@o@@@@@@oo@o@@@@oo..........         ",
"        ...OOOOOO...o@@@@oo@@o@@@@@@oo@o@@@@oo..OOOOOO..         ",
"        ...+++++++..o@@@@oo@@o@@@@@@o@@o@@@@oo..+++++++.         ",
"        .XX+XXXXXX..@@@@@oo@@o@@@@@@o@@o@@@@ooXX+XXXXXX.         ",
"        .XXO+XXXXX.###########################XXO+XXXXX.         ",
"        .XXOXXXXXX.####%%%%%%&&&&&&&%%%%%%####XXOXXXXXX.         ",
"        .OXOXXXXXX.oooooooooooooooooooooooooooOXOXXXXXX.         ",
"        ..OXXXXXXX.ooooooooooooooooooooooooooo.OXXXXXXX.         ",
"        .....XXX....@@$@@oo@oo$@@@@@o@oo@@$@@o....XXX...         ",
"        ............@@$@@oo@@o@@@@@$o@@o@@@@@o..........         ",
"        ...OOOOOO...$@$@@@o@@@@@@@@$o@@o@@$@@o..OOOOOO..         ",
"        ..O+OOOOOO..$@@@@@o@@@$@@@@$o@@o@@$@@o.O+OOOOOO.         ",
"        .O+++O+O++.o$@$@@@o@@@$@@@@$o@@o@@$@@oO+++O+O++.         ",
"        .OO++XXXXX.o$@$@$@o@@@$@$$$$o$$o@$$@@oOO++XXXXX.         ",
"        .OOOXOXXXX.o$@$@$@o$@@$$$$$$@$$o@$$@@oOOOXOXXXX.         ",
"        ..O+XOOXXX.o$@$@$@o$$@$$$$$$@$@@@@@@@o.O+XOOXXX.         ",
"        ..OXOXOXX..o$$$@$@o$$@$$$$$$@$@ooooo@o.OXOXOXX..         ",
"        ...XXXXXX..o$$$$$@o$$@$$$$$$@$@o=*&ooo..XXXXXX..         ",
"        ...........o$$$$$$@$$@$$$$$$@@o*ooo&oo..........         ",
"        ...........o$$$$$$@$$@$$$$$$@@o*ooo&oo..........         ",
"        ...XXXXXXX.o$@$$$$@$$$$$$$$$@@o&ooo%oo..XXXXXXX.         ",
"        ...XOOOOOO.o$@$$@$@@$$$$$@$$@@@o%%%o@o..XOOOOOO.         ",
"        ...OOOOOXX.o$@$$@$@@@$$$$@@$@@@ooooo@o..OOOOOXX.         ",
"        ..XOOOXXXX.o@@$$@$@@@$$@$@@@@@@@ooo@@o.XOOOXXXX.         ",
"        ..XOXXXXXX.o@@$@@@o@@@$@$@$@@@@@@@@@@o.XOXXXXXX.         ",
"        ..XOXXXXXX.o@@$@o@o@@@$@@@$@o@@@@@@@@o.XOXXXXXX.         ",
"        ..XXXXXXX..o@@@@o@o@@@$@@@$@o@@@@$@@@o.XXXXXXX..         ",
"        ..XXXXXX...o@@$@o@o@@@$@@@$@o@@@@$@@@o.XXXXXX...         ",
"        ...........###########################..........         ",
"        ....OOOOOO.####%%%%%&%&&&&&&%&%%%%####...OOOOOO.         ",
"        ...OOO++++.oooooooooooooooooooooooooooo.OOO++++.         ",
"        ..OO+++OOX.ooooooooooooooooooooooooooooOO+++OOX.         ",
"        ..OXXOOOXX.o@@@@o@o@@@@@o@@@o@@@@@@o@o.OXXOOOXX.         ",
"        ..OXXOOOXX.oo@@@o@o@@@@@o@@@o@@@@@@o@o.OXXOOOXX.         ",
"        ..OOXXOOXX.oo@o@o@o@@@@@o@@@o@@@@@@o@o.OOXXOOXX.         ",
"        ...XXXOXXX.oo@o@o@o@@@@@o@@@o@@@@@oo@o..XXXOXXX.         ",
"        ....XXXXX..oo@o@ooo@@@@@o@@@o@o@@@oo@o...XXXXX..         ",
"        ...........oo@o@ooo@@@@@o@@@o@o@@@oo@o..........         ",
"        ..XXXXXXX..oo@o@ooo@@@@@o@@@o@o@@@oo@o.XXXXXXX..         ",
"        ..XXXXXXX..oo@o@ooo@@@@@o@@oo@o@@ooo@o.XXXXXXX..         ",
"        ....XXXXX..oooo@oooo@o@oo@@oo@o@@ooo@o...XXXXX..         ",
"        ......XXX..ooooooooo@o@ooo@oo@oo@ooooo.....XXX..         ",
"        ...........ooooooooo@ooooo@ooooo@ooooo..........         ",
"        ...XXXXX...ooooooooo@ooooo@ooooooooooo..XXXXX...         ",
"        ...XXXXXX..ooooooooooooooooooooooooooo..XXXXXX..         ",
"        ...XXXXX...ooooooooooooooooooooooooooo..XXXXX...         ",
"        ...........ooooooooooooooooooooooooooo..........         ",
"                                                                 "
};
