/* XPM */
static char *b6221f31598d44f2afcf0b83fc81b3984Jc0BT6zFjTzzms5[] = {
/* columns rows colors chars-per-pixel */
"65 65 10 1 ",
"  c #120707",
". c #1B0018",
"X c #6F1801",
"o c #64043B",
"O c #8E0929",
"+ c #FF2418",
"@ c #D32A2C",
"# c #FF343A",
"$ c #A94100",
"% c #FF6922",
/* pixels */
"                                                                 ",
"                                                                 ",
"                              +                                  ",
"                              +                                  ",
"                             ++                                  ",
"                             ++                                  ",
"                             +++                                 ",
"                           +++++++                               ",
"                           +..XXX+           +++                 ",
"                            ++..$X+         +..+                 ",
"                              +.X$X+       +XX+                  ",
"                               +..$+      +..++                  ",
"                                +.$X+     +.++                   ",
"                                +.$$+     +..+                   ",
"                                +.X$+     +..++                  ",
"                               ++.XX+      +X.+                  ",
"                               +..XX+    ++XX.+                  ",
"                               +...++    +XX.++                  ",
"                              ++...X++  +...++                   ",
"                             +O@@O...+++....+                    ",
"                              +..OO...OOO..++                    ",
"                              ++OO..OOOOOO++                     ",
"                              +++O.oOO@%%@O+                     ",
"                            +++++..oOO..%@@++                    ",
"                          ++.......ooO.#.@%O+                    ",
"                         +.OOOO...o..@@@@%%@+                    ",
"                        +.O@@@@O..oo.OOO..@O+                    ",
"                        +OO@%%@O..oO.$.OOOO.+                    ",
"                       +.O@@@%@O..oO...%.$o+       +             ",
"                +      +OO@O@@OO..oOO.....o+       +             ",
"                +     +OOOO.OOO.X..oooOOOo..       +             ",
"                ++   +OO@@@.....X...........+     ++             ",
"                ++   +OO@@@OO....$..XXXX.X.oo+   ++++            ",
"                ++   +.O@@OO.....$.XX$$X.X.ooo+  ++++            ",
"                +.+  +.OO@O........XX.X....ooo+++++++            ",
"                +..+ +...OXXX.......X.X.+...o+++.o.oo+           ",
"               +++.+  ++.X$$$.......XXXX+....++.oo..o+           ",
"               +++.+    +X$XXX.........  +..XXX...o.o+           ",
"               +O.+     +.$X$$......     ++.XXXX.....+           ",
"             ++O.+      ...X$XXO@@.+      +..XXX...++            ",
"            ++...+    ++....$XO@@O@+      ++...++++              ",
"            +..++    ++.......O@%%O+        +++                  ",
"            ..+      +........OO@O.+++                           ",
"          ++..+     +..........OOO.++++++                        ",
"          +...      +.....O........oooo+++                       ",
"          +..+     +......OO..........oo.++                      ",
"          +..++  ++.......OOO........ooooo+                      ",
"          +..O.++.OO....+.O@O.....ooooooo..+                     ",
"           +..OO@@O...+++.O@@O..........OOo+                     ",
"           +...OOO...+  +.@%%@.++++.....OOo+                     ",
"            +......+  +++.O%@@.+   ++....oo+                     ",
"             +....+  +$$X.O@@@.+     +.....+                     ",
"              +++   +X$$X..OOO.+     +.....+                     ",
"                   +$XX$$X....+      +.....+                     ",
"                  ++X$XX$XX..+       +.XXX++                     ",
"                 ++XXXX..$X++        +..XX+                      ",
"                 +.XX..++++          +...X+                      ",
"                +...+++               +...+                      ",
"               +...+                  +...++                     ",
"               +.X$$+                  +.XX++                    ",
"               +..$$$                  +XXXXX+                   ",
"                +XXXX                  +.XXXX+                   ",
"                                                                 ",
"                                                                 ",
"                                                                 "
};
