/* XPM */
static char *_0d24b04e9ac451f8cec5f84705ccbe6DWCncafzmWNyzWth[] = {
/* columns rows colors chars-per-pixel */
"65 65 10 1 ",
"  c #120707",
". c #1B0018",
"X c #6F1801",
"o c #64043B",
"O c #8E0929",
"+ c #D32A2C",
"@ c #FF343A",
"# c #A94100",
"$ c #FF6922",
"% c #FF084B",
/* pixels */
"                                                                 ",
"                      %%%                                        ",
"                     %%XX%%%%%%%%%                               ",
"                     %...X%%XX.%%%%%                             ",
"                 %%%%%%%..XXXXXX.%%%%                            ",
"                %..XX.%% ......X.%%%%%                           ",
"               %...X..XX%% %%.....%%%%                           ",
"                .   ...XX%%   %...%%%%                           ",
"                      ..X%%  oO+O..%%%%                          ",
"                       .XX%oo....OOO%%%%                         ",
"                       ....o.@O.Ooooo%%%                         ",
"                        ....++OOoo..oo%%%                        ",
"                         ..O+OOoo....o%%%                        ",
"                         ..OOOOo.....o%%%                        ",
"                         OOoooo......%%%                         ",
"                        OO..ooo.....o%%%                         ",
"                       OO............%%                          ",
"                       O%%%%..........%%%                        ",
"                            %..........%%%                       ",
"                          %%%..#X....XX#X%%                      ",
"                        %OOO...X....X..##X%%                     ",
"                       %OO+OO....##.X.XXXX..%                    ",
"                       %O$$+OO......XXX..X..%%                   ",
"                       %++++OO..OOO.XX.....o.%%                  ",
"                       %++++OO..OOOO.X....Oo.%%                  ",
"                       %O++OO..OOO+OO...OOOoo%%                  ",
"                       OOOO...oOOOOOOOOOOOOoo%%                  ",
"                       O...OOOooOOOOOOOooOOo.%%%                 ",
"                       .OO+++O.ooOOOOooooooo%%%%                 ",
"                       ..O++O%%oooooooo..oo.%%%%                 ",
"                      XXX.OO%%%o.ooooo.....%%%%%                 ",
"                      ####..%%%oo..........%%%%                  ",
"                      XXXXX%%% %.oo.......%%%%%                  ",
"                      ####X%%% %...o.......%%%                   ",
"                      XXX%%%%   %.o.o......%%%                   ",
"                      ###%%%%   %.oo.......%%                    ",
"                      XXX%%%%   ...oo.......%                    ",
"                       ...OO%%  ............%%                   ",
"                %%%    OO$++O% .............%%                   ",
"                ..%%   ++$O%O%%.............%%                   ",
"                 ..%%  O+$O%%%%..............%%                  ",
"                  ..%   O++  %..oo...........%%                  ",
"                  ..%%      %.oooo.........o.%%                  ",
"                   ..%%     ..oooo....%..o.oo.%                  ",
"                  %..%     %.ooooo....%%.o.oo.%%                 ",
"                  %..%%    %.ooooo...%  .o.oo.%%                 ",
"                   ...%    .oOOOOO..%   .o.ooo.%                 ",
"                   %..%%  %.oOOOOO.%%   .o.ooo.%                 ",
"                    ...%%%%++OOOO.%%    .ooooo.%                 ",
"                    .......+++Oo..%     %.o.oo.%                 ",
"                    .......OOOoo.%%     %.o.OO.%                 ",
"                     ......OOO..%%      %...OO.%%                ",
"                      ..XX....%%%        ....oo%%                ",
"                       X##X...%%         %.....%%                ",
"                       X###XX%%          %.....%%                ",
"                       #XXXX%%%          %.XXXX%                 ",
"                      X##X.%%%            .XXX%%                 ",
"                      ##X..%%             ..XX%%                 ",
"                      XX..%%%             ...X%                  ",
"                     .XX.%%%              %...%%                 ",
"                    ....%%%                ...%%                 ",
"                   .....%%                 %.XX%%                ",
"                   ...###%                 %XXXXX%               ",
"                     XXXX%                  .XXXX%               ",
"                                                                 "
};
