/* XPM */
static char *_aad845b09884b6a8d8a104bf8493ff1DTsMmU6Io5wDTwb8[] = {
/* columns rows colors chars-per-pixel */
"65 65 10 1 ",
"  c #120707",
". c #1B0018",
"X c #6F1801",
"o c #64043B",
"O c #8E0929",
"+ c #FF2418",
"@ c #D32A2C",
"# c #FF343A",
"$ c #A94100",
"% c #FF6922",
/* pixels */
"                                                                 ",
"                                                                 ",
"                                  +                              ",
"                                  +                              ",
"                                  ++                             ",
"                                  ++                             ",
"                                 +++                             ",
"                               +++++++                           ",
"                 +++           +XXX..+                           ",
"                 +..+         +X$..++                            ",
"                  +XX+       +X$X.+                              ",
"                  ++..+      +$..+                               ",
"                   ++.+     +X$.+                                ",
"                   +..+     +$$.+                                ",
"                  ++..+     +$X.+                                ",
"                  +.X+      +XX.++                               ",
"                  +.XX++    +XX..+                               ",
"                  ++.XX+    ++...+                               ",
"                   ++...+  ++X...++                              ",
"                    +....+++...O@@O+                             ",
"                    ++..OOO...OO..+                              ",
"                     ++OOOOOO..OO++                              ",
"                     +O@%%@OOo.O+++                              ",
"                    ++@@%..OOo..+++++                            ",
"                    +O%@.#.Ooo.......++                          ",
"                    +@%%@@@@..o...OOOO.+                         ",
"                    +O@..OOO.oo..O@@@@O.+                        ",
"                    +.OOOO.$.Oo..O@%%@OO+                        ",
"             +       +o$.%...Oo..O@%@@@O.+                       ",
"             +       +o.....OOo..OO@@O@OO+      +                ",
"             +       ..oOOOooo..X.OOO.OOOO+     +                ",
"             ++     +...........X.....@@@OO+   ++                ",
"            ++++   +oo.X.XXXX..$....OO@@@OO+   ++                ",
"            ++++  +ooo.X.X$$XX.$.....OO@@O.+   ++                ",
"            +++++++ooo....X.XX........O@OO.+  +.+                ",
"           +oo.o.+++o...+.X.X.......XXXO...+ +..+                ",
"           +o..oo.++....+XXXX.......$$$X.++  +.+++               ",
"           +o.o...XXX..+  .........XXX$X+    +.+++               ",
"           +.....XXXX.++     ......$$X$.+     +.O+               ",
"            ++...XXX..+      +.@@OXX$X...      +.O++             ",
"              ++++...++      +@O@@OX$....++    +...++            ",
"                  +++        +O%%@O.......++    ++..+            ",
"                           +++.O@OO........+      +..            ",
"                        ++++++.OOO..........+     +..++          ",
"                       +++oooo........O.....+      ...+          ",
"                      ++.oo..........OO......+     +..+          ",
"                      +ooooo........OOO.......++  ++..+          ",
"                     +..ooooooo.....O@O.+....OO.++.O..+          ",
"                     +oOO..........O@@O.+++...O@@OO..+           ",
"                     +oOO.....++++.@%%@.+  +...OOO...+           ",
"                     +oo....++   +.@@%O.+++  +......+            ",
"                     +.....+     +.@@@O.X$$+  +....+             ",
"                     +.....+     +.OOO..X$$X+   +++              ",
"                     +.....+      +....X$$XX$+                   ",
"                     ++XXX.+       +..XX$XX$X++                  ",
"                      +XX..+        ++X$..XXXX++                 ",
"                      +X...+          ++++..XX.+                 ",
"                      +...+               +++...+                ",
"                     ++...+                  +...+               ",
"                    ++XX.+                  +$$X.+               ",
"                   +XXXXX+                  $$$..+               ",
"                   +XXXX.+                  XXXX+                ",
"                                                                 ",
"                                                                 ",
"                                                                 "
};
