/* XPM */
static char *e510661653b743dbcf945dace53223e6DWh7VZcTTfoSAqx2[] = {
/* columns rows colors chars-per-pixel */
"65 65 178 2 ",
"   c #110606",
".  c #120707",
"X  c #140709",
"o  c #120909",
"O  c #15090A",
"+  c #120D0B",
"@  c #110B0D",
"#  c #1A0B0C",
"$  c #120A13",
"%  c #110B17",
"&  c #110C1B",
"*  c #0E1015",
"=  c #391611",
"-  c #10102C",
";  c #0F163E",
":  c #00222F",
">  c #002332",
",  c #002736",
"<  c #002937",
"1  c #002A37",
"2  c #002C37",
"3  c #002838",
"4  c #002D3A",
"5  c #002C3C",
"6  c #002E3D",
"7  c #561B2C",
"8  c #58273F",
"9  c #642C3E",
"0  c #642E3E",
"q  c #0E1741",
"w  c #0B1841",
"e  c #0D1842",
"r  c #0D1844",
"t  c #091E44",
"y  c #022042",
"u  c #002E42",
"i  c #002E45",
"p  c #09224C",
"a  c #002A4B",
"s  c #002D48",
"d  c #002E4E",
"f  c #052E4D",
"g  c #00324A",
"h  c #0D2357",
"j  c #09245D",
"k  c #042B66",
"l  c #0E2A65",
"z  c #0A276D",
"x  c #022E6C",
"c  c #12226A",
"v  c #162369",
"b  c #102668",
"n  c #0A2B75",
"m  c #0C2978",
"M  c #112471",
"N  c #112474",
"B  c #152774",
"V  c #122871",
"C  c #142875",
"Z  c #182E71",
"A  c #142379",
"S  c #112478",
"D  c #102679",
"F  c #11277B",
"G  c #12267B",
"H  c #1D3075",
"J  c #27277E",
"K  c #23327C",
"L  c #441F48",
"P  c #4E1B48",
"I  c #571F41",
"U  c #5C1B45",
"Y  c #611A45",
"T  c #572440",
"R  c #5C2843",
"E  c #57344D",
"W  c #57315A",
"Q  c #55335E",
"!  c #602740",
"~  c #612B40",
"^  c #78224F",
"/  c #653042",
"(  c #653641",
")  c #6C3949",
"_  c #652457",
"`  c #6E2E52",
"'  c #6B2B5A",
"]  c #582B64",
"[  c #5C2E6B",
"{  c #563364",
"}  c #543469",
"|  c #52356D",
" . c #4C3574",
".. c #672B6F",
"X. c #622B71",
"o. c #5F4049",
"O. c #674341",
"+. c #654243",
"@. c #674543",
"#. c #6C4542",
"$. c #664D42",
"%. c #634946",
"&. c #674C44",
"*. c #684B43",
"=. c #664448",
"-. c #675442",
";. c #625346",
":. c #655646",
">. c #695241",
",. c #6B5445",
"<. c #6E5C42",
"1. c #6C5E45",
"2. c #705B43",
"3. c #7C5B43",
"4. c #834F3E",
"5. c #8B5638",
"6. c #8A5939",
"7. c #925537",
"8. c #915737",
"9. c #935D37",
"0. c #925938",
"q. c #A0413D",
"w. c #AC443A",
"e. c #B1493A",
"r. c #BB4F39",
"t. c #B85637",
"y. c #B75638",
"u. c #BB5239",
"i. c #B45A38",
"p. c #B75A38",
"a. c #CB5437",
"s. c #C95637",
"d. c #CD5A38",
"f. c #D1673A",
"g. c #D4683B",
"h. c #D1703A",
"j. c #D3713C",
"k. c #D27A3D",
"l. c #D67B3E",
"z. c #982763",
"x. c #B05442",
"c. c #B75442",
"v. c #FA7046",
"b. c #CF8C3F",
"n. c #D4853E",
"m. c #D68640",
"M. c #D58F41",
"N. c #DE8F43",
"B. c #D89042",
"V. c #DF9E45",
"C. c #F48F48",
"Z. c #E0A447",
"A. c #EEB74D",
"S. c #EFBE4F",
"D. c #F3B54F",
"F. c #B8F177",
"G. c #BFF177",
"H. c #B9F278",
"J. c #F8C452",
"K. c #FACA54",
"L. c #FDD356",
"P. c #FFD55A",
"I. c #FFD55B",
"U. c #FFDB5B",
"Y. c #FFE15E",
"T. c #F2DB66",
"R. c #D7EF73",
"E. c #E6EA6F",
"W. c #EAE86C",
"Q. c #FFE660",
"!. c #F1E669",
"~. c #272684",
"^. c #232B86",
"/. c #282B81",
"(. c #4C2A8A",
"). c #5B338E",
"_. c #69348E",
"`. c #843289",
/* pixels */
". . . . . . . . . . . . . . . . . . . . . . . . . . . . . . . . . . . . . . . . . . . . . . . . . . . . . . . . . . . . . . . . . ",
". . . . . . . . . . . . . . . . . . . . . . . . . . . . . . . . . . . . . . . . . . . . . . . . . . . . . . . . . . . . . . . . . ",
". . . . . . . . . . . . . . . . . . . . . . . . . . . . . . . . . . . . . . . . . . . . . . . . . . . . . . . . . . . . . . . . . ",
". . . . . . . . . . . . . . . . . . . . . . . . . . . . . . . . . . . . . . . . . . . . . . . . . . . . . . . . . . . . . . . . . ",
". . . . . . . . . . . . . . . . . . . . o $ 3 F + . . . . . . . . . . . . . . . . . . . . . . . . . . . . . . . . . . . . . . . . ",
". . . . . . . . . . . . . . . . . . . . , 3 :.:.F , . . . . . . . . . . . . . . . . . . . . . . . . . . . . . . . . . . . . . . . ",
". . . . . . . . . . . . . . . . . . . O :.h.j.n.:.F , . . . . . . . . . . . . . . . . . . . . . . . . . . . . . . . . . . . . . . ",
". . . . . . . . . . . . . . . . . . . > M.n.j.h.A l.W 3 3 . . . . F F 3 3 . . . . . . . . . . . . . . . . . . . . . . . . . . . . ",
". . . . . . . . . . . . . . . . . . . , :.n.d.A m.M.H.:.:., . . , 2.!.B.3 o @ # O o . . X 3 3 3 3 . . . . . . . . . . . . . . . . ",
". . . . . . . . . . . . . . . . . . . c F :.:.A B.H.H.B.:.:.:., :.M.J.:.:.3 9.3 3 o . 3 3 B.:.:.:.> . . . . . . . . . . . . . . . ",
". . . . . . . . . . . . . , 3 3 3 F . X $.F F :.&.B.B.B.:.:.< A :.B.B.:.:.3 :.:.6 * 3 -.B.B.B.:.:.> . . . . . . . . . . . . . . . ",
". . . . . . . . . . . . 3 B.B.:.:.3 F 3 F X.F F , F :.A 3 3 F (.:.B.:.:.3 F M.B.:.6 :.:.B.B.:.:., . . . . . . . . . . . . . . . . ",
". . . . . . . . . . . . 3 :.B.B.:.F | ! 9.F :.B.M.H.F c.F L.B.:.:.:.~ 3 F T.E.B.:., m :.B.6 :.3 . . . . . . . . . . . . . . . . . ",
". . . . . . . . . . . . c F :.:.:.| *.B.B.:.:.H.H.H.M., B.H.H.B.&.3 3 :.F.F.H.M.:.F 3 F F :.3 3 . . . . . . . . . . . . . . . . . ",
". . . . . . . . . . . . . . , F :.A B.B.| B.H.H.H.B.M.4 B.H.B.( 3 :.:.:.H.R.M.:.F 3 :.B.:.:.3 r . o . . . . . . . . . . . . . . . ",
". . . . . . . . . . . . . . = F :.E n.F ~.:.B.B.B.:.,.0 4 B.:.:.3 :.:.B.M.B.;.m :.F :.M.B.B.:.r C N q > . . . . . . . . . . . . . ",
". . . . . . . , 3 F F 3 > . , < T | F F / F F :.:.:.3 3 :.F 3 3 :.3 :.:.:.F F 3 :.3 :.:.B.:.r C :.:.:.C r . . . . . . . . . . . . ",
". . . . . . 3 M F :.) :.F 3 { :.:.M.q.F :.3 ,.M.B.:.F B.B.:.:.:.A 3 :.A F :.:.:.:.:.F F :.3 r :.B.B.:.:.C . . . . . . . . . . . . ",
". . . . . , F :.:.:.B.n.) F F s.M.B.Y.:.:.3 M.G.B.B.F H.H.B.:.:.F :.:.:.F :.:.D.B.B.t.F F C :.:.:.B.B.:.r r . . . . . . . . . . . ",
". . . . . 3 :.F n.B.B.j.n.n.:...B.R.Z.:.3 :.:.M.B.:.B.H.H.B.:.3 , :.:.:., :.B.H.L.B.x.:.r C :.B.B.:.:.3 C r . . . . . . . . . . . ",
". . . . . . 3 :.F j.B.j.) ) j.:.e.u.:.F B.B.B.:.3 B.H.H.B.:.N F :.:.M.:.:.:.B.H.B.i.:.( 3 F r C :.C C :.:.C q . . . . . . . . . . ",
". . . . . . F r.u.:.| B.:.| ) F g.:.F B.H.H.B.:.3 :.H.B.B.B.:.F :.F.B.B.:.3 :.a.:.<.:.B r :.:.:.r r :.B.B.C r . . . . . . . . . . ",
". . . . . . F 3 :.F F 3 5.F F Q F F B.H.H.B.F 3 :.:.:.:.B.H.B.F :.H.F.B.:.3 3 F C C B C :.:.B.B.:.3 :.B.3 r C . . . . . . . . . . ",
". . . . . c 3 :.:.:.3 :.B.:.B.B.B.:.H.H.H.-.F :.B.B.F B.H.H.B.:.:.H.H.:.:.3 :.:.:.F :.r :.:.B.B.B.C :.3 r :.r e . . . . . . . . . ",
". . . . . M :.B.B.A.F B.:.B.H.H.B.1.B.B.-.i :.B.B.B.F H.H.B.B.:.3 F G B.P G :.H.H.B.:.r :.:.B.B.B.C C :.B.B.:.3 . . . . . . . . . ",
". . . . . F :.A.A.:.3 B.F :.H.B.B.3 :.F +., :.B.B.:.:.H.B.B.:.F F :.M.f O.C B.H.B.:.F C r :.:.B.:.:.r F :.:.:.C e . . . . . . . . ",
". . . . . 3 :.:.:.F F :.:.F :.B.:.:.F :.:.B.M.6 { F F B.F F ,.< :.H.B.0 C C G r F :.C r C C C :.C r r C r `.`.C r . . . . . . . . ",
". . . . . F 3 3 3 :.:.B.H.B.:.:.:.3 F :.H.w.:.:.B.-.l.B.:.:.,.2 :.H.H.B.r :.B.:.C C r r :.:.r r C C :.B.r `.3 r . . . . . . . . . ",
". . . . . . F F :.B.B.B.B.H.B.:.:.:.:.H.B./.H.H.B.E.B.B.:.j.{ U g :.B.C C H.H.B.:.C :.:.B.:.:.F r :.B.B.:.r `.r . . . . . . . . . ",
". . . . . . . F :.:.B.B.B.B.B.:.3 :.:.B.:.H.H.H.U.9.B.g 3.:.M.:.( G :.r :.B.B.B.:.F r B.B.B.:.:.r C :.m.:.`.C r e . 7 . . . . . . ",
". . . . . . . F F 3 J :.:.B.B.:.3 :.3 3 D.S.W.N.>.A 3 ` H.H.B.T.:.G r C :.:.B.:.F F r :.:.:.:.F C C :.:.`.`.3 :.:.C q . . . . . . ",
". . . . . . . . F 3 3 J 4 :.:.B.H.B.:.:.7.B.B.x.:.3 B.H.H.H.R.6.:.:.C C G :.:.G C r C C :.F F C r r C r r r C :.:.:.C . . . . . . ",
". . . . . . . . 3 F :.:.:.3 4.C.H.A.B.:.4 M.t.:.3 3 B.J.H.B.7.:.:.C r r G G C C r :.F :.3 3 C r C C r F F r C 3 :.:.C @ . . . . . ",
". . . . . . . 3 3 F ~ 3 :.#.v.F.H.K.:.:.< :.<.:.G ,.I.B.Q.B.:.:.y :.:.C r G C r :.B.B.s.:.B r C :.:.:.:.F C C r r r r v o . . . . ",
". . . . . . 3 3 3 ~ :.:.3 F B.H.B.F F B.:., F F :.:.:.B.B.x.:.r :.B.:.G C r C F :.B.B.B.:.B r :.:.B.B.:.:.F r :.:.r C r . . . . . ",
". . . . . 3 3 :.:.B.B.:.3  .:.B.R F.G.M.M.:.3 3 :.:.3 :.y.:.3 N.H.H.B.:.:.C r r :.:.B.:.r r C :.:.B.B.B.:.:.r :.:.F `.C r . . . . ",
". . . . . . , :.B.B.:.3 :.%.:.F f.H.B.B.:.:.B.H.B.:.3 F :.:.3 M.H.H.B.B.r r F :.r R B B r :.C r :.:.B.B.B.:.r :.:.F `.C r . . . . ",
". . . . . < 3 3 B.B.:.3 3 F 3 :.:.B.:.:.:.:.H.B.M.,.3 3 F 3 3 4 g.g.B.:.r F :.:.B r q :.B.:.:.r r :.:.:.:.:.C 3 _ r r r . . . . . ",
". . . . . . 3 3 :.:.3 3 F 3 3 3 :.:.:.3 < F < B.:.3 F F 3 F 0 4 C m 6 C C :.:.B.:.C C :.B.B.:.:.r C C :.:.C r r C `.C C r . . . . ",
". . . . . o 3 F F F 3 :.:.:.B.F 3 3 3 F B.:.F 3 3 :.:.:.3 :.:.B.B.:.:.:.r F B.B.B.:.C :.B.B.B.:.:.r r r 3 r C C `.`.`.B B . . . . ",
". . . . . . . , 3 3 :.:.B.B.B.:.:.3 ;.M.F.M.:.:.3 :.B.M.6 :.H.B.B.:.:.C r C :.B.B.:.e r :.:.:.:.C C C r r :.^ l C `.`.r r . . . . ",
". . . . . . . . 3 :.:.B.B.B.B.:.3 :.M.F.F.M.;.^.3 B.H.H.l.I B.B.:.:.C e r r C :.B.:.:.r m :.:.r r r r C ^ :.:.:.C C `.r r o . . . ",
". . . . . . . . 3 F :.B.B.B.:.:.3 M.H.R.B.B.;.4 :.B.H.B.:.3 3 r C r C r :.:.r :.:.:.r C r C G C G C r r C :.:.:.^ t `.r - . . . . ",
". . . . . . . . 3 F :.B.:.:.:.3 F :.M.B.B.:.< < 3 :.B.:.r r :.:.r C C :.:.:.r F G r C G C r C G :.:.r C r k `.:.^ d r $ . . . . . ",
". . . . . . . . r C F :.r r C C :.5.:.:.:.3 ~ :.:.3 ~ r r :.:.:.:.3 C :.B.B.C 3 r r :.:.:.r r :.:.:.' C r y `.`.k y . . . . . . . ",
". . . . . . . . r r C C r } :.C R :.[ r r r ~ B.B.~ C r F :.B.:.:.r r :.B.B.:.r r :.B.B.:.@.b C :.:.:.:.C B k `.`.N t . . . . . . ",
". . . . . . . . o q r N :.B.B.:.M r C C :.r r B.:.:.r r :.B.B.:.3 3 r :.:.B.B.C 3 :.B.:.:.G r w G :.:.r B C y C B r t . . . . . . ",
". . . . . . . . r r 3 D :.B.B.:.C r r :.:.:.C C r C r :.B.B.B.:.r -.<.3 :.:.( C r r :.:.C r H w r `.C r `.r B 3 o O . . . . . . . ",
". . . . . . . . r N :.:.B.I.B.:.] C :.B.B.B.:.:.r :.r :.:.B.c.3 3 t.:.6 C C r :.C r 3 < r :.a `.r r C C `.`.r . . . . . . . . . . ",
". . . . . . . . C F :.B.B.B.:.F C C i.V.V.i.:.F ;.:.C B :.:.F C :.M.6.0 C :.:.:.:.C B C :.:.:.^.H r C C `.`.C r . . . . . . . . . ",
". . . . . . . . r C :.B.B.:.F q r :.j.I.l.:.:.x :.r r r :.:.r :.M.B.( C 3 :.B.B.:.C e C :.:.:.`.K M e 3 r `.r e . . . . . . . . . ",
". . . . . . . . r C :.:.C r r r F :.:.B.:.:.r u r r F C r 3 C E B.B.E C 3 T :.B.:.:.r h ^ ^ `.`.`.j ; o r N r . . . . . . . . . . ",
". . . . . . . . . e r N r q . r p z =.3 3 C C n :.n F F C r r r G G C r C r :.:.o.`.C e C C C `.`.C z.. . o . . . . . . . . . . . ",
". . . . . . . . . . o . o . . & r B ).r r r n :.:.:.F r r F F :.B.,.G r r :.U L C `.`.e w 3 C C C r . . . o . . . . . . . . . . . ",
". . . . . . . . . . . . . . . @ w 3 r `.s F :.:.:.:.3 r F F :.B.B.:.:.m r :.:.:.:.i r `.r e r r o o . . . . . . . . . . . . . . . ",
". . . . . . . . . . . . . . . . @ . r B r F :.:.:.F r C `.F :.:.:.:.:.G C :.:.:.:.C r _.C . . . o O . . . . . . . . . . . . . . . ",
". . . . . . . . . . . . . . . . . . . r B F F :.F C r C `.`.F :.:.:.:.F e C :.:.:.C C * . . . . . . . . . . . . . . . . . . . . . ",
". . . . . . . . . . . . . . . . . . . w r C C 3 C e . r C `.`.F :.:.F < r r C C B r r . . . . . . . . . . . . . . . . . . . . . . ",
". . . . . . . . . . . . . . . . . . . . r r r C r r . . r C `.F G G F C . . C e r r . . . . . . . . . . . . . . . . . . . . . . . ",
". . . . . . . . . . . . . . . . . . . . . . . . . o . . . C C C C 3 r o . . o o . . . . . . . . . . . . . . . . . . . . . . . . . ",
". . . . . . . . . . . . . . . . . . . . . . . . . . . . . . q M e . . . . . . . . . . . . . . . . . . . . . . . . . . . . . . . . ",
". . . . . . . . . . . . . . . . . . . . . . . . . . . . . . . . . . . . . . . . . . . . . . . . . . . . . . . . . . . . . . . . . ",
". . . . . . . . . . . . . . . . . . . . . . . . . . . . . . . . . . . . . . . . . . . . . . . . . . . . . . . . . . . . . . . . . ",
". . . . . . . . . . . . . . . . . . . . . . . . . . . . . . . . . . . . . . . . . . . . . . . . . . . . . . . . . . . . . . . . . ",
". . . . . . . . . . . . . . . . . . . . . . . . . . . . . . . . . . . . . . . . . . . . . . . . . . . . . . . . . . . . . . . . . "
};
